HIERARCHY
ROOT reference
{
  OFFSET 0 0 0
  CHANNELS 6 Xposition Yposition Zposition Zrotation Xrotation Yrotation
  JOINT Hips
  {
    OFFSET 7.65452 84.3 247.087
    CHANNELS 6 Xposition Yposition Zposition Zrotation Xrotation Yrotation
    JOINT Spine
    {
      OFFSET 0 7.59534 0
      CHANNELS 6 Xposition Yposition Zposition Zrotation Xrotation Yrotation
      JOINT Spine1
      {
        OFFSET 0 23.5015 0
        CHANNELS 6 Xposition Yposition Zposition Zrotation Xrotation Yrotation
        JOINT Neck
        {
          OFFSET 0 23.405 2.12773
          CHANNELS 6 Xposition Yposition Zposition Zrotation Xrotation Yrotation
          JOINT Head
          {
            OFFSET 0 12.9677 -1.85252
            CHANNELS 6 Xposition Yposition Zposition Zrotation Xrotation Yrotation
            End Site
            {
              OFFSET 0 23.1565 0
            }
          }
        }
        JOINT LeftShoulder
        {
          OFFSET 3.62206 22.4732 -0.132728
          CHANNELS 6 Xposition Yposition Zposition Zrotation Xrotation Yrotation
          JOINT LeftArm
          {
            OFFSET 8.17784 0 0
            CHANNELS 6 Xposition Yposition Zposition Zrotation Xrotation Yrotation
            JOINT LeftForeArm
            {
              OFFSET 30.104 0 0
              CHANNELS 6 Xposition Yposition Zposition Zrotation Xrotation Yrotation
              JOINT LeftHand
              {
                OFFSET 24.4664 0 0
                CHANNELS 6 Xposition Yposition Zposition Zrotation Xrotation Yrotation
                End Site
                {
                  OFFSET 13.8939 0 0
                }
              }
            }
          }
        }
        JOINT RightShoulder
        {
          OFFSET -3.6336 22.4732 -0.132728
          CHANNELS 6 Xposition Yposition Zposition Zrotation Xrotation Yrotation
          JOINT RightArm
          {
            OFFSET -8.17784 0 0
            CHANNELS 6 Xposition Yposition Zposition Zrotation Xrotation Yrotation
            JOINT RightForeArm
            {
              OFFSET -30.104 0 0
              CHANNELS 6 Xposition Yposition Zposition Zrotation Xrotation Yrotation
              JOINT RightHand
              {
                OFFSET -24.4664 0 0
                CHANNELS 6 Xposition Yposition Zposition Zrotation Xrotation Yrotation
                End Site
                {
                  OFFSET -13.8939 0 0
                }
              }
            }
          }
        }
      }
    }
    JOINT LeftUpLeg
    {
      OFFSET 9.26261 0 0
      CHANNELS 6 Xposition Yposition Zposition Zrotation Xrotation Yrotation
      JOINT LeftLeg
      {
        OFFSET 0 -35.4897 0
        CHANNELS 6 Xposition Yposition Zposition Zrotation Xrotation Yrotation
        JOINT LeftFoot
        {
          OFFSET 0 -38.2023 0
          CHANNELS 6 Xposition Yposition Zposition Zrotation Xrotation Yrotation
          JOINT LeftToeBase
          {
            OFFSET 0 -6.0207 13.8939
            CHANNELS 6 Xposition Yposition Zposition Zrotation Xrotation Yrotation
            End Site
            {
              OFFSET 0 0 3.70504
            }
          }
        }
      }
    }
    JOINT RightUpLeg
    {
      OFFSET -9.26261 0 0
      CHANNELS 6 Xposition Yposition Zposition Zrotation Xrotation Yrotation
      JOINT RightLeg
      {
        OFFSET 0 -35.4897 0
        CHANNELS 6 Xposition Yposition Zposition Zrotation Xrotation Yrotation
        JOINT RightFoot
        {
          OFFSET 0 -38.2023 0
          CHANNELS 6 Xposition Yposition Zposition Zrotation Xrotation Yrotation
          JOINT RightToeBase
          {
            OFFSET 0 -6.0207 13.8939
            CHANNELS 6 Xposition Yposition Zposition Zrotation Xrotation Yrotation
            End Site
            {
              OFFSET 0 0 3.70504
            }
          }
        }
      }
    }
  }
}
MOTION
Frames:	4
Frame Time:	0.004
0 0 0 0 0 -0 -12.8779 68.538 -156.824 -1.14159 5.92784 9.72319 5.32907e-015 7.59534 0 -5.04156 13.3005 -2.50814 3.55271e-015 23.5015 0 0.499914 -10.5862 -3.05015 -1.77636e-015 23.405 2.12773 3.06827 14.8781 -4.9037 0 12.9677 -1.85252 12.808 -19.5006 -1.19622 3.62206 22.4732 -0.132728 -8.51011 13.0687 -5.30579 8.17784 -2.13163e-014 -2.84217e-014 -22.3448 42.7924 -29.7843 30.104 0 0 1.0274 -18.6778 -9.79199 24.4664 0 -1.42109e-014 -6.55825 -18.3327 -4.80696 -3.6336 22.4732 -0.132728 -0.0676294 13.9207 40.8023 -8.17784 -7.10543e-015 0 16.7938 18.5754 36.3991 -30.104 0 0 -28.2924 -41.3339 77.8909 -24.4664 0 0 1.74904 -21.3042 -0.920995 9.26261 -2.84217e-014 0 11.0582 -7.24781 10.5902 0 -35.4897 0 -20.3795 44.4252 -2.422 0 -38.2023 0 7.52126 -33.0817 17.7299 0 -6.0207 13.8939 3.97569e-016 -1.59028e-015 6.36111e-015 -9.26261 0 0 -7.66713 -54.5745 -13.5726 3.55271e-015 -35.4897 1.42109e-014 -0.16128 76.3084 -8.29691 0 -38.2023 2.84217e-014 -0.281034 3.40193 16.3399 0 -6.0207 13.8939 -8.82781e-032 -6.36111e-015 -7.95139e-016 
0 0 0 0 0 -0 -12.7739 68.6647 -156.266 -1.28612 5.94242 9.76614 1.77636e-015 7.59534 -2.84217e-014 -4.77671 13.211 -2.65235 0 23.5015 2.84217e-014 0.502826 -10.6634 -3.15902 0 23.405 2.12773 3.11776 14.9036 -4.81061 0 12.9677 -1.85252 12.8026 -19.3951 -1.11213 3.62206 22.4732 -0.132728 -8.43919 13.1149 -5.41463 8.17784 7.10543e-015 5.68434e-014 -22.4656 42.5821 -29.8339 30.104 0 1.42109e-014 0.997424 -18.7235 -9.86266 24.4664 -7.10543e-015 0 -6.14151 -18.407 -4.61061 -3.6336 22.4732 -0.132728 -0.259029 13.4268 40.8447 -8.17784 7.10543e-015 0 16.7406 18.1364 36.6122 -30.104 0 0 -28.1626 -41.6335 78.7944 -24.4664 0 2.84217e-014 1.06022 -21.416 -1.22839 9.26261 0 0 10.9381 -6.45061 10.5741 0 -35.4897 0 -19.7067 43.5795 -2.76713 -7.10543e-015 -38.2023 2.84217e-014 6.89975 -32.9177 17.3721 0 -6.0207 13.8939 -3.97569e-016 -7.95139e-016 -0 -9.26261 0 0 -7.66107 -55.0311 -13.6104 0 -35.4897 -7.10543e-015 0.431477 75.2255 -8.49812 0 -38.2023 0 -0.188439 3.83473 16.4486 0 -6.0207 13.8939 1.76556e-031 6.36111e-015 -1.59028e-015 
0 0 0 0 0 -0 -12.6526 68.8026 -155.666 -1.43896 5.93318 9.82786 -1.77636e-015 7.59534 -2.84217e-014 -4.46455 13.1044 -2.80644 3.55271e-015 23.5015 0 0.509856 -10.7246 -3.27175 0 23.405 2.12773 3.17299 14.9254 -4.72189 0 12.9677 -1.85252 12.6766 -19.2636 -1.07274 3.62206 22.4732 -0.132728 -8.41762 13.1157 -5.51356 8.17784 0 0 -22.4669 42.6906 -29.9372 30.104 0 0 1.07646 -18.9203 -9.96079 24.4664 -1.42109e-014 0 -5.7464 -18.624 -4.35792 -3.6336 22.4732 -0.132728 -0.455136 12.9736 40.8475 -8.17784 0 0 16.661 17.7621 36.8493 -30.104 -1.42109e-014 7.10543e-015 -28.2715 -41.9932 79.4997 -24.4664 0 0 0.468145 -21.4773 -1.5759 9.26261 0 0 10.7918 -5.57947 10.4928 0 -35.4897 0 -18.9891 42.659 -3.19372 0 -38.2023 0 6.39735 -32.7037 17.111 -1.42109e-014 -6.0207 13.8939 3.97569e-016 2.38542e-015 -3.18055e-015 -9.26261 0 -2.84217e-014 -7.68996 -55.3899 -13.724 1.77636e-015 -35.4897 2.13163e-014 0.909117 74.0293 -8.58614 0 -38.2023 0 -0.179808 4.19841 16.677 1.77636e-015 -6.0207 13.8939 1.59028e-015 -6.36111e-015 -1.59028e-015 
0 0 0 0 0 -0 -12.5367 68.9555 -155.054 -1.56845 5.86598 9.82873 -5.32907e-015 7.59534 2.84217e-014 -4.17554 13.0415 -2.93871 0 23.5015 2.84217e-014 0.503263 -10.7944 -3.36876 1.77636e-015 23.405 2.12773 3.02081 14.9549 -4.64585 0 12.9677 -1.85252 12.9123 -19.0622 -0.940027 3.62206 22.4732 -0.132728 -8.41294 13.1547 -5.55844 8.17784 -7.10543e-015 -2.84217e-014 -22.4502 42.784 -30.0457 30.104 0 1.42109e-014 1.19779 -19.0151 -10.0117 24.4664 7.10543e-015 1.42109e-014 -5.52852 -18.7256 -4.15489 -3.6336 22.4732 -0.132728 -0.617215 12.475 40.9172 -8.17784 -7.10543e-015 0 16.7212 17.4486 36.9794 -30.104 0 0 -28.5008 -42.2987 80.0441 -24.4664 0 0 0.426605 -21.434 -1.61533 9.26261 -1.42109e-014 2.84217e-014 10.6486 -4.62027 10.4016 -7.10543e-015 -35.4897 0 -18.3172 41.6815 -3.59912 7.10543e-015 -38.2023 0 5.8924 -32.3816 16.8615 0 -6.0207 13.8939 3.97569e-016 0 -0 -9.26261 7.10543e-015 0 -7.59168 -55.605 -13.5468 3.55271e-015 -35.4897 0 1.6934 72.7916 -8.93684 0 -38.2023 0 -0.0885279 4.61968 16.7439 -5.32907e-015 -6.0207 13.8939 7.95139e-016 -3.18055e-015 1.59028e-015 
